<svg height="251" viewBox="0 0 300 251" width="300"
	xmlns="http://www.w3.org/2000/svg"
	xmlns:xlink="http://www.w3.org/1999/xlink">
	<linearGradient id="a">
		<stop offset="0" stop-color="#4c9bd4"/>
		<stop offset="1" stop-color="#4575be"/>
	</linearGradient>
	<linearGradient id="b" gradientUnits="userSpaceOnUse" x1="249.927" x2="59.394" xlink:href="#a" y1="-26.776" y2="172.163"/>
	<linearGradient id="c" gradientUnits="userSpaceOnUse" x1="308.819" x2="118.285" xlink:href="#a" y1="29.627" y2="228.566"/>
	<linearGradient id="d" gradientUnits="userSpaceOnUse" x1="303.922" x2="113.388" xlink:href="#a" y1="24.936" y2="223.876"/>
	<linearGradient id="e" gradientUnits="userSpaceOnUse" x1="357.268" x2="166.735" xlink:href="#a" y1="76.029" y2="274.969"/>
	<linearGradient id="f" gradientUnits="userSpaceOnUse" x1="405.718" x2="215.184" xlink:href="#a" y1="122.432" y2="321.371"/>
	<g fill="#fff">
		<path d="m-1436.6 3160.84h-57.12v-156.56h57.12z"/>
		<path d="m-1225.6 3061.4h-167.91v-57.12h167.91z"/>
		<path d="m-1330.46 3160.84h-63.05v-57.12h63.05z"/>
		<path d="m-1225.6 3160.84h-63.04v-57.12h63.04z"/>
		<path d="m-1225.6 3260.28h-268.12v-57.12h268.12z"/>
		<path d="m-1025.24 3140.44c0 2.7-.11 6.24-.34 10.62h-92.04c2.08 7.68 5.97 13.85 11.57 18.34 6.03 4.84 13.56 7.29 22.39 7.29 6.19 0 12.19-1.18 17.83-3.52 5.65-2.33 10.64-5.72 14.85-10.09l1.07-1.1 18.42 19.21-.93 1.02c-6.36 7-14.22 12.49-23.37 16.3-9.12 3.81-19.37 5.74-30.44 5.74-13.01 0-24.64-2.74-34.57-8.15-9.97-5.42-17.78-13.14-23.2-22.96-5.41-9.78-8.15-21.18-8.15-33.87s2.78-24.13 8.27-33.99c5.5-9.89 13.3-17.69 23.18-23.19 9.86-5.49 21.22-8.27 33.76-8.27 20.34 0 35.89 5.92 46.22 17.61 10.27 11.63 15.48 28.12 15.48 49.01zm-39.51-32.2c-5.48-5.17-12.86-7.8-21.95-7.8-8.49 0-15.69 2.6-21.4 7.71-5.35 4.8-8.84 11.38-10.37 19.57h62.31c-.57-8.07-3.46-14.61-8.59-19.48z" fill-rule="evenodd"/>
		<path d="m-967.36 3004.43v198.65h-33.42v-198.65z"/>
		<path d="m-676.35 3074.76-48.93 128.32h-33.43l-49.4-128.07 35.06-.26 31.74 92.27 31.06-92.26z"/>
		<path d="m-393.61 3123.37v79.74h-33.65v-70.84c0-8.3-2.38-14.93-7.07-19.7-4.69-4.76-11.2-7.18-19.34-7.18-9.64.15-17.36 3.45-22.9 9.81-5.59 6.41-8.43 14.75-8.43 24.8v63.11h-33.41v-128.32h33.41v19.6c9.15-13.5 23.75-20.48 43.5-20.77 14.74 0 26.53 4.53 35.06 13.46 8.52 8.91 12.83 21.12 12.83 36.29z"/>
		<path d="m-197.76 3203.08v-12.75c-4.14 4.39-8.76 7.56-14.31 9.83-7.22 2.95-14.75 4.32-23.7 4.32s-16.94-1.74-23.75-5.19c-6.86-3.47-12.22-8.35-15.94-14.5-3.72-6.14-5.61-13.09-5.61-20.68 0-12.13 4.37-21.78 12.98-28.69 8.62-6.92 20.25-10.36 35.53-10.52h27.16c2.09 0 3.93-.88 5.19-2.47 1.46-1.85 1.97-4.45 1.37-6.97-.61-2.54-4.69-15.19-25.42-14.08-12.13.64-19.52 3.31-26.25 16.08l-.72 1.35-26.31-15.03.68-1.27c8.8-16.41 21.65-23.17 30.88-25.95 8.15-2.45 17.8-3.7 28.67-3.7 15.82 0 28.8 4.31 38.58 12.81 9.27 8.06 14.05 19.47 14.21 33.9l.24 83.51zm-27.1-54.83c-7.8 0-13.56 1.14-17.13 3.4-3.4 2.15-5.06 5.61-5.06 10.58 0 4.88 1.77 8.64 5.41 11.49 3.7 2.91 8.87 4.38 15.38 4.38 8.43 0 12.81-1.93 18.91-5.97 5.89-3.9 9.13-8.55 9.89-14.21v-9.67z" fill-rule="evenodd"/>
		<path d="m-148.85 3099.09c-3.25-3.32-4.88-7.26-4.88-11.88 0-4.63 1.63-8.57 4.88-11.82 3.31-3.31 7.25-4.93 11.81-4.93 4.63 0 8.57 1.62 11.82 4.93 3.31 3.25 4.94 7.19 4.94 11.82 0 4.62-1.63 8.56-4.94 11.88-3.25 3.25-7.19 4.87-11.82 4.87-4.56 0-8.5-1.62-11.81-4.87zm2.37-21.51c-2.56 2.69-3.87 5.88-3.87 9.63s1.31 6.94 3.87 9.62c2.57 2.63 5.75 3.94 9.44 3.94 3.75 0 6.94-1.31 9.5-3.94 2.63-2.68 3.94-5.87 3.94-9.62s-1.31-6.94-3.94-9.63c-2.56-2.69-5.75-4-9.5-4-3.69 0-6.87 1.31-9.44 4zm3 19.19v-19.19h7.13c4.5 0 6.69 2.69 6.69 6.13 0 2.56-1.13 4.31-3.31 5.31l4 7.75h-4.32l-3.5-6.87h-2.81v6.87zm6.82-15.56h-2.94v5.12h2.94c2.19 0 3.06-1.25 3.06-2.56 0-1.69-1-2.56-3.06-2.56z" fill-rule="evenodd"/>
		<path d="m-336.18 3108.26v48.31c0 5.38.98 9.18 2.9 11.31 2.08 2.3 10.12 9.43 26.3 4.46l1.92-.58v29.38l-1.07.31c-7.43 2.14-13.93 3.01-19.61 3.01-18.26 0-28.01-8.98-32.83-13.41-7.16-6.59-10.79-16.38-10.79-29.09l.02-126.22h33.18l-.02 39.66h31.12v32.86z"/>
		<path d="m-815.87 3140.44c0 2.7-.12 6.24-.34 10.62h-92.04c2.08 7.68 5.97 13.85 11.57 18.34 6.03 4.84 13.56 7.29 22.39 7.29 6.18 0 12.18-1.18 17.83-3.52 5.64-2.33 10.64-5.72 14.85-10.09l1.07-1.1 18.42 19.21-.93 1.02c-6.37 7-14.23 12.49-23.37 16.3-9.13 3.81-19.37 5.74-30.45 5.74-13 0-24.63-2.74-34.56-8.15-9.98-5.42-17.78-13.14-23.2-22.96-5.41-9.78-8.16-21.18-8.16-33.87s2.79-24.13 8.27-33.99c5.51-9.89 13.31-17.69 23.19-23.19 9.86-5.49 21.22-8.27 33.76-8.27 20.34 0 35.89 5.92 46.21 17.61 10.28 11.63 15.49 28.12 15.49 49.01zm-39.52-32.2c-5.47-5.17-12.85-7.8-21.95-7.8-8.49 0-15.69 2.6-21.39 7.71-5.36 4.8-8.84 11.38-10.37 19.57h62.31c-.57-8.07-3.46-14.61-8.6-19.48z" fill-rule="evenodd"/>
		<path d="m-542.42 3140.44c0 2.7-.11 6.24-.34 10.62h-92.04c2.09 7.68 5.97 13.85 11.57 18.34 6.03 4.84 13.56 7.29 22.39 7.29 6.19 0 12.19-1.18 17.83-3.52 5.65-2.33 10.64-5.72 14.86-10.09l1.06-1.1 18.42 19.21-.93 1.02c-6.36 7-14.22 12.49-23.37 16.3-9.12 3.81-19.36 5.74-30.44 5.74-13.01 0-24.64-2.74-34.57-8.15-9.97-5.42-17.78-13.14-23.2-22.96-5.41-9.78-8.15-21.18-8.15-33.87s2.78-24.13 8.27-33.99c5.5-9.89 13.3-17.69 23.19-23.19 9.86-5.49 21.21-8.27 33.75-8.27 20.35 0 35.9 5.92 46.22 17.61 10.27 11.63 15.48 28.12 15.48 49.01zm-39.51-32.2c-5.47-5.17-12.86-7.8-21.95-7.8-8.49 0-15.69 2.6-21.39 7.71-5.36 4.8-8.85 11.38-10.37 19.57h62.31c-.58-8.07-3.46-14.61-8.6-19.48z" fill-rule="evenodd"/>
	</g>
	<path d="m74.86 153.12h-55.71v-152.69h55.71z" fill="url(#b)"/>
	<path d="m280.66 56.13h-163.77v-55.7h163.77z" fill="url(#c)"/>
	<path d="m178.38 153.12h-61.49v-55.7h61.49z" fill="url(#d)"/>
	<path d="m280.66 153.12h-61.49v-55.7h61.49z" fill="url(#e)"/>
	<path d="m280.66 250.11h-261.51v-55.7h261.51z" fill="url(#f)"/>
	<path d="m1083.19 3180.37c0 2.63-.11 6.07-.33 10.34h-89.6c2.03 7.48 5.81 13.48 11.26 17.85 5.87 4.71 13.2 7.1 21.8 7.1 6.02 0 11.86-1.15 17.36-3.43 5.49-2.27 10.36-5.57 14.46-9.82l1.03-1.07 17.94 18.7-.91.99c-6.19 6.82-13.85 12.16-22.75 15.87-8.88 3.71-18.85 5.59-29.64 5.59-12.66 0-23.98-2.67-33.65-7.93-9.71-5.28-17.3-12.8-22.58-22.35-5.27-9.53-7.94-20.62-7.94-32.98 0-12.35 2.71-23.49 8.05-33.09 5.36-9.63 12.95-17.22 22.57-22.57 9.6-5.35 20.66-8.05 32.87-8.05 19.8 0 34.94 5.76 44.99 17.13 10 11.33 15.07 27.38 15.07 47.72zm-38.47-31.35c-5.32-5.03-12.51-7.59-21.36-7.59-8.27 0-15.28 2.53-20.83 7.5-5.22 4.68-8.61 11.08-10.1 19.05h60.66c-.55-7.85-3.36-14.22-8.37-18.96z" fill="#fff" fill-rule="evenodd"/>
	<path d="m1139.54 3047.96v193.39h-32.53v-193.39z" fill="#fff"/>
	<path d="m1422.84 3116.43-47.63 124.92h-32.55l-48.09-124.68 34.13-.25 30.9 89.83 30.24-89.82z" fill="#fff"/>
	<path d="m1698.09 3163.75v77.63h-32.76v-68.96c0-8.09-2.31-14.54-6.88-19.18s-10.9-6.99-18.83-6.99c-9.39.15-16.9 3.36-22.3 9.55-5.44 6.24-8.2 14.36-8.2 24.15v61.43h-32.53v-124.92h32.53v19.08c8.91-13.14 23.12-19.94 42.34-20.22 14.36 0 25.84 4.41 34.14 13.1 8.29 8.68 12.49 20.57 12.49 35.33z" fill="#fff"/>
	<path d="m1888.75 3241.35v-12.41c-4.03 4.28-8.53 7.36-13.93 9.56-7.02 2.88-14.36 4.22-23.07 4.22s-16.49-1.7-23.12-5.06c-6.68-3.38-11.9-8.13-15.52-14.11s-5.46-12.75-5.46-20.14c0-11.81 4.25-21.2 12.63-27.92 8.4-6.74 19.72-10.09 34.59-10.24h26.44c2.04 0 3.83-.86 5.06-2.42 1.42-1.8 1.92-4.33 1.33-6.77-.59-2.48-4.56-14.8-24.75-13.72-11.81.63-19 3.23-25.55 15.66l-.7 1.32-25.62-14.64.66-1.24c8.58-15.97 21.09-22.55 30.07-25.26 7.94-2.39 17.32-3.6 27.91-3.6 15.4 0 28.04 4.2 37.55 12.47 9.03 7.85 13.69 18.95 13.84 33l.24 81.3zm-26.38-53.38c-7.59 0-13.21 1.11-16.68 3.31-3.31 2.1-4.92 5.47-4.92 10.31 0 4.75 1.72 8.41 5.27 11.18 3.59 2.83 8.63 4.26 14.96 4.26 8.21 0 12.48-1.87 18.42-5.81 5.73-3.8 8.88-8.32 9.62-13.83v-9.42z" fill="#fff" fill-rule="evenodd"/>
	<path d="m1936.36 3140.11c-3.16-3.22-4.74-7.06-4.74-11.56 0-4.51 1.58-8.34 4.74-11.5 3.23-3.23 7.06-4.81 11.51-4.81 4.5 0 8.33 1.58 11.5 4.81 3.22 3.16 4.81 6.99 4.81 11.5 0 4.5-1.59 8.34-4.81 11.56-3.17 3.16-7 4.75-11.5 4.75-4.45 0-8.28-1.59-11.51-4.75zm2.32-20.93c-2.5 2.61-3.78 5.72-3.78 9.37s1.28 6.75 3.78 9.37c2.49 2.56 5.59 3.83 9.19 3.83 3.65 0 6.75-1.27 9.25-3.83 2.55-2.62 3.83-5.72 3.83-9.37s-1.28-6.76-3.83-9.37c-2.5-2.62-5.6-3.9-9.25-3.9-3.6 0-6.7 1.28-9.19 3.9zm2.92 18.68v-18.68h6.93c4.39 0 6.52 2.61 6.52 5.96 0 2.5-1.1 4.2-3.23 5.17l3.9 7.55h-4.2l-3.41-6.7h-2.74v6.7zm6.63-15.15h-2.86v4.99h2.86c2.13 0 2.98-1.22 2.98-2.5 0-1.64-.97-2.49-2.98-2.49z" fill="#fff" fill-rule="evenodd"/>
	<path d="m1754 3149.04v47.03c0 5.24.95 8.94 2.82 11.01 2.03 2.25 9.85 9.19 25.61 4.35l1.86-.57v28.6l-1.04.31c-7.23 2.08-13.56 2.93-19.09 2.93-17.78 0-27.27-8.75-31.96-13.06-6.97-6.42-10.5-15.94-10.5-28.32l.01-122.88h32.31l-.02 38.62h30.29v31.98z" fill="#fff"/>
	<path d="m1287.01 3180.37c0 2.63-.11 6.07-.33 10.34h-89.6c2.03 7.48 5.81 13.48 11.26 17.85 5.87 4.71 13.2 7.1 21.8 7.1 6.02 0 11.86-1.15 17.36-3.43 5.49-2.27 10.36-5.57 14.46-9.82l1.03-1.07 17.94 18.7-.91.99c-6.19 6.82-13.85 12.16-22.75 15.87-8.88 3.71-18.85 5.59-29.64 5.59-12.66 0-23.98-2.67-33.65-7.93-9.71-5.28-17.3-12.8-22.58-22.35-5.27-9.53-7.94-20.62-7.94-32.98 0-12.35 2.71-23.49 8.05-33.09 5.36-9.63 12.95-17.22 22.57-22.57 9.6-5.35 20.66-8.05 32.87-8.05 19.8 0 34.94 5.76 44.99 17.13 10 11.33 15.07 27.38 15.07 47.72zm-38.47-31.35c-5.32-5.03-12.51-7.59-21.36-7.59-8.27 0-15.28 2.53-20.83 7.5-5.22 4.68-8.61 11.08-10.1 19.05h60.66c-.55-7.85-3.36-14.22-8.37-18.96z" fill="#fff" fill-rule="evenodd"/>
	<path d="m1553.22 3180.37c0 2.63-.11 6.07-.33 10.34h-89.6c2.03 7.48 5.81 13.48 11.26 17.85 5.87 4.71 13.21 7.1 21.8 7.1 6.03 0 11.86-1.15 17.36-3.43 5.49-2.27 10.36-5.57 14.46-9.82l1.04-1.07 17.93 18.7-.9.99c-6.2 6.82-13.86 12.16-22.76 15.87-8.88 3.71-18.85 5.59-29.64 5.59-12.66 0-23.98-2.67-33.65-7.93-9.7-5.28-17.3-12.8-22.58-22.35-5.27-9.53-7.94-20.62-7.94-32.98 0-12.35 2.71-23.49 8.05-33.09 5.36-9.63 12.95-17.22 22.58-22.57 9.59-5.35 20.65-8.05 32.86-8.05 19.8 0 34.94 5.76 44.99 17.13 10 11.33 15.07 27.38 15.07 47.72zm-38.47-31.35c-5.32-5.03-12.51-7.59-21.36-7.59-8.27 0-15.27 2.53-20.83 7.5-5.21 4.68-8.61 11.08-10.09 19.05h60.66c-.56-7.85-3.37-14.22-8.38-18.96z" fill="#fff" fill-rule="evenodd"/>
	<path d="m1386.86 2918.83h-55.71v-152.69h55.71z" fill="#fff"/>
	<path d="m1592.66 2821.84h-163.77v-55.7h163.77z" fill="#fff"/>
	<path d="m1490.38 2918.83h-61.49v-55.7h61.49z" fill="#fff"/>
	<path d="m1592.66 2918.83h-61.49v-55.7h61.49z" fill="#fff"/>
	<path d="m1592.66 3015.82h-261.51v-55.7h261.51z" fill="#fff"/>
</svg>