<svg version="1.2" baseProfile="tiny-ps"
	xmlns="http://www.w3.org/2000/svg" viewBox="0 0 300 251" width="300" height="251">
	<title>logoEleventa_vector-ai</title>
	<defs>
		<linearGradient id="grd1" gradientUnits="userSpaceOnUse" x1="249.927" y1="-26.776" x2="59.394" y2="172.163">
			<stop offset="0" stop-color="#4c9bd4" />
			<stop offset="1" stop-color="#4575be" />
		</linearGradient>
		<linearGradient id="grd2" gradientUnits="userSpaceOnUse" x1="308.819" y1="29.627" x2="118.285" y2="228.566">
			<stop offset="0" stop-color="#4c9bd4" />
			<stop offset="1" stop-color="#4575be" />
		</linearGradient>
		<linearGradient id="grd3" gradientUnits="userSpaceOnUse" x1="303.922" y1="24.936" x2="113.388" y2="223.876">
			<stop offset="0" stop-color="#4c9bd4" />
			<stop offset="1" stop-color="#4575be" />
		</linearGradient>
		<linearGradient id="grd4" gradientUnits="userSpaceOnUse" x1="357.268" y1="76.029" x2="166.735" y2="274.969">
			<stop offset="0" stop-color="#4c9bd4" />
			<stop offset="1" stop-color="#4575be" />
		</linearGradient>
		<linearGradient id="grd5" gradientUnits="userSpaceOnUse" x1="405.718" y1="122.432" x2="215.184" y2="321.371">
			<stop offset="0" stop-color="#4c9bd4" />
			<stop offset="1" stop-color="#4575be" />
		</linearGradient>
	</defs>
	<style>
		tspan { white-space:pre }
		.shp0 { fill: #ffffff } 
		.shp1 { fill: url(#grd1) } 
		.shp2 { fill: url(#grd2) } 
		.shp3 { fill: url(#grd3) } 
		.shp4 { fill: url(#grd4) } 
		.shp5 { fill: url(#grd5) } 
	</style>
	<g id="Capa 1">
		<g id="&lt;Group&gt;">
			<g id="&lt;Group&gt;">
			</g>
			<g id="&lt;Group&gt;">
				<g id="&lt;Group&gt;">
					<g id="&lt;Group&gt;">
					</g>
				</g>
			</g>
		</g>
		<g id="&lt;Group&gt;">
			<g id="&lt;Group&gt;">
			</g>
			<g id="&lt;Group&gt;">
				<g id="&lt;Group&gt;">
					<g id="&lt;Group&gt;">
					</g>
				</g>
			</g>
		</g>
		<g id="&lt;Group&gt;">
			<g id="&lt;Group&gt;">
			</g>
			<g id="&lt;Group&gt;">
				<g id="&lt;Group&gt;">
					<g id="&lt;Group&gt;">
						<g id="&lt;Group&gt;">
						</g>
					</g>
				</g>
			</g>
		</g>
		<g id="&lt;Group&gt;">
			<g id="&lt;Group&gt;">
			</g>
			<g id="&lt;Group&gt;">
				<g id="&lt;Group&gt;">
					<g id="&lt;Group&gt;">
					</g>
				</g>
			</g>
		</g>
		<g id="&lt;Group&gt;">
			<g id="&lt;Group&gt;">
				<path id="&lt;Path&gt;" class="shp0" d="M-1436.6 3160.84L-1493.72 3160.84L-1493.72 3004.28L-1436.6 3004.28L-1436.6 3160.84Z" />
				<path id="&lt;Path&gt;" class="shp0" d="M-1225.6 3061.4L-1393.51 3061.4L-1393.51 3004.28L-1225.6 3004.28L-1225.6 3061.4Z" />
				<path id="&lt;Path&gt;" class="shp0" d="M-1330.46 3160.84L-1393.51 3160.84L-1393.51 3103.72L-1330.46 3103.72L-1330.46 3160.84Z" />
				<path id="&lt;Path&gt;" class="shp0" d="M-1225.6 3160.84L-1288.64 3160.84L-1288.64 3103.72L-1225.6 3103.72L-1225.6 3160.84Z" />
				<path id="&lt;Path&gt;" class="shp0" d="M-1225.6 3260.28L-1493.72 3260.28L-1493.72 3203.16L-1225.6 3203.16L-1225.6 3260.28Z" />
			</g>
			<g id="&lt;Group&gt;">
				<path id="&lt;Compound Path&gt;" fill-rule="evenodd" class="shp0" d="M-1025.24 3140.44C-1025.24 3143.14 -1025.35 3146.68 -1025.58 3151.06L-1117.62 3151.06C-1115.54 3158.74 -1111.65 3164.91 -1106.05 3169.4C-1100.02 3174.24 -1092.49 3176.69 -1083.66 3176.69C-1077.47 3176.69 -1071.47 3175.51 -1065.83 3173.17C-1060.18 3170.84 -1055.19 3167.45 -1050.98 3163.08L-1049.91 3161.98L-1031.49 3181.19L-1032.42 3182.21C-1038.78 3189.21 -1046.64 3194.7 -1055.79 3198.51C-1064.91 3202.32 -1075.16 3204.25 -1086.23 3204.25C-1099.24 3204.25 -1110.87 3201.51 -1120.8 3196.1C-1130.77 3190.68 -1138.58 3182.96 -1144 3173.14C-1149.41 3163.36 -1152.15 3151.96 -1152.15 3139.27C-1152.15 3126.58 -1149.37 3115.14 -1143.88 3105.28C-1138.38 3095.39 -1130.58 3087.59 -1120.7 3082.09C-1110.84 3076.6 -1099.48 3073.82 -1086.94 3073.82C-1066.6 3073.82 -1051.05 3079.74 -1040.72 3091.43C-1030.45 3103.06 -1025.24 3119.55 -1025.24 3140.44ZM-1064.75 3108.24C-1070.23 3103.07 -1077.61 3100.44 -1086.7 3100.44C-1095.19 3100.44 -1102.39 3103.04 -1108.1 3108.15C-1113.45 3112.95 -1116.94 3119.53 -1118.47 3127.72L-1056.16 3127.72C-1056.73 3119.65 -1059.62 3113.11 -1064.75 3108.24Z" />
				<path id="&lt;Path&gt;" class="shp0" d="M-967.36 3004.43L-967.36 3203.08L-1000.78 3203.08L-1000.78 3004.43L-967.36 3004.43Z" />
				<path id="&lt;Path&gt;" class="shp0" d="M-676.35 3074.76L-725.28 3203.08L-758.71 3203.08L-808.11 3075.01L-773.05 3074.75L-741.31 3167.02L-710.25 3074.76L-676.35 3074.76Z" />
				<path id="&lt;Path&gt;" class="shp0" d="M-393.61 3123.37L-393.61 3203.11L-427.26 3203.11L-427.26 3132.27C-427.26 3123.97 -429.64 3117.34 -434.33 3112.57C-439.02 3107.81 -445.53 3105.39 -453.67 3105.39C-463.31 3105.54 -471.03 3108.84 -476.57 3115.2C-482.16 3121.61 -485 3129.95 -485 3140L-485 3203.11L-518.41 3203.11L-518.41 3074.79L-485 3074.79L-485 3094.39C-475.85 3080.89 -461.25 3073.91 -441.5 3073.62C-426.76 3073.62 -414.97 3078.15 -406.44 3087.08L-406.44 3087.08C-397.92 3095.99 -393.61 3108.2 -393.61 3123.37Z" />
				<path id="&lt;Compound Path&gt;" fill-rule="evenodd" class="shp0" d="M-197.76 3203.08L-197.76 3190.33C-201.9 3194.72 -206.52 3197.89 -212.07 3200.16C-219.29 3203.11 -226.82 3204.48 -235.77 3204.48C-244.72 3204.48 -252.71 3202.74 -259.52 3199.29C-266.38 3195.82 -271.74 3190.94 -275.46 3184.79C-279.18 3178.65 -281.07 3171.7 -281.07 3164.11C-281.07 3151.98 -276.7 3142.33 -268.09 3135.42C-259.47 3128.5 -247.84 3125.06 -232.56 3124.9L-205.4 3124.9C-203.31 3124.9 -201.47 3124.02 -200.21 3122.43C-198.75 3120.58 -198.24 3117.98 -198.84 3115.46C-199.45 3112.92 -203.53 3100.27 -224.26 3101.38C-236.39 3102.02 -243.78 3104.69 -250.51 3117.46L-251.23 3118.81L-277.54 3103.78L-276.86 3102.51C-268.06 3086.1 -255.21 3079.34 -245.98 3076.56C-237.83 3074.11 -228.18 3072.86 -217.31 3072.86C-201.49 3072.86 -188.51 3077.17 -178.73 3085.67C-169.46 3093.73 -164.68 3105.14 -164.52 3119.57L-164.28 3203.08L-197.76 3203.08ZM-224.86 3148.25C-232.66 3148.25 -238.42 3149.39 -241.99 3151.65C-245.39 3153.8 -247.05 3157.26 -247.05 3162.23C-247.05 3167.11 -245.28 3170.87 -241.64 3173.72C-237.94 3176.63 -232.77 3178.1 -226.26 3178.1C-217.83 3178.1 -213.45 3176.17 -207.35 3172.13C-201.46 3168.23 -198.22 3163.58 -197.46 3157.92L-197.46 3148.25L-224.86 3148.25Z" />
				<g id="&lt;Group&gt;">
					<g id="&lt;Group&gt;">
						<path id="&lt;Compound Path&gt;" fill-rule="evenodd" class="shp0" d="M-148.85 3099.09C-152.1 3095.77 -153.73 3091.83 -153.73 3087.21C-153.73 3082.58 -152.1 3078.64 -148.85 3075.39C-145.54 3072.08 -141.6 3070.46 -137.04 3070.46C-132.41 3070.46 -128.47 3072.08 -125.22 3075.39C-121.91 3078.64 -120.28 3082.58 -120.28 3087.21C-120.28 3091.83 -121.91 3095.77 -125.22 3099.09C-128.47 3102.34 -132.41 3103.96 -137.04 3103.96C-141.6 3103.96 -145.54 3102.34 -148.85 3099.09ZM-146.48 3077.58C-149.04 3080.27 -150.35 3083.46 -150.35 3087.21C-150.35 3090.96 -149.04 3094.15 -146.48 3096.83C-143.91 3099.46 -140.73 3100.77 -137.04 3100.77C-133.29 3100.77 -130.1 3099.46 -127.54 3096.83C-124.91 3094.15 -123.6 3090.96 -123.6 3087.21C-123.6 3083.46 -124.91 3080.27 -127.54 3077.58C-130.1 3074.89 -133.29 3073.58 -137.04 3073.58C-140.73 3073.58 -143.91 3074.89 -146.48 3077.58ZM-143.48 3096.77L-143.48 3077.58L-136.35 3077.58C-131.85 3077.58 -129.66 3080.27 -129.66 3083.71C-129.66 3086.27 -130.79 3088.02 -132.97 3089.02L-128.97 3096.77L-133.29 3096.77L-136.79 3089.9L-139.6 3089.9L-139.6 3096.77L-143.48 3096.77ZM-136.66 3081.21L-139.6 3081.21L-139.6 3086.33L-136.66 3086.33C-134.47 3086.33 -133.6 3085.08 -133.6 3083.77C-133.6 3082.08 -134.6 3081.21 -136.66 3081.21Z" />
					</g>
				</g>
				<path id="&lt;Path&gt;" class="shp0" d="M-336.18 3108.26L-336.18 3156.57C-336.18 3161.95 -335.2 3165.75 -333.28 3167.88L-333.28 3167.88C-331.2 3170.18 -323.16 3177.31 -306.98 3172.34L-305.06 3171.76L-305.06 3201.14L-306.13 3201.45C-313.56 3203.59 -320.06 3204.46 -325.74 3204.46C-344 3204.46 -353.75 3195.48 -358.57 3191.05C-365.73 3184.46 -369.36 3174.67 -369.36 3161.96L-369.34 3035.74L-336.16 3035.74L-336.18 3075.4L-305.06 3075.4L-305.06 3108.26L-336.18 3108.26Z" />
				<path id="&lt;Compound Path&gt;" fill-rule="evenodd" class="shp0" d="M-815.87 3140.44C-815.87 3143.14 -815.99 3146.68 -816.21 3151.06L-908.25 3151.06C-906.17 3158.74 -902.28 3164.91 -896.68 3169.4C-890.65 3174.24 -883.12 3176.69 -874.29 3176.69C-868.11 3176.69 -862.11 3175.51 -856.46 3173.17C-850.82 3170.84 -845.82 3167.45 -841.61 3163.08L-840.54 3161.98L-822.12 3181.19L-823.05 3182.21C-829.42 3189.21 -837.28 3194.7 -846.42 3198.51C-855.55 3202.32 -865.79 3204.25 -876.87 3204.25C-889.87 3204.25 -901.5 3201.51 -911.43 3196.1C-921.41 3190.68 -929.21 3182.96 -934.63 3173.14C-940.04 3163.36 -942.79 3151.96 -942.79 3139.27C-942.79 3126.58 -940 3115.14 -934.52 3105.28C-929.01 3095.39 -921.21 3087.59 -911.33 3082.09C-901.47 3076.6 -890.11 3073.82 -877.57 3073.82C-857.23 3073.82 -841.68 3079.74 -831.36 3091.43C-821.08 3103.06 -815.87 3119.55 -815.87 3140.44ZM-855.39 3108.24C-860.86 3103.07 -868.24 3100.44 -877.34 3100.44C-885.83 3100.44 -893.03 3103.04 -898.73 3108.15C-904.09 3112.95 -907.57 3119.53 -909.1 3127.72L-846.79 3127.72C-847.36 3119.65 -850.25 3113.11 -855.39 3108.24Z" />
				<path id="&lt;Compound Path&gt;" fill-rule="evenodd" class="shp0" d="M-542.42 3140.44C-542.42 3143.14 -542.53 3146.68 -542.76 3151.06L-634.8 3151.06C-632.71 3158.74 -628.83 3164.91 -623.23 3169.4C-617.2 3174.24 -609.67 3176.69 -600.84 3176.69C-594.65 3176.69 -588.65 3175.51 -583.01 3173.17C-577.36 3170.84 -572.37 3167.45 -568.15 3163.08L-567.09 3161.98L-548.67 3181.19L-549.6 3182.21C-555.96 3189.21 -563.82 3194.7 -572.97 3198.51C-582.09 3202.32 -592.33 3204.25 -603.41 3204.25C-616.42 3204.25 -628.05 3201.51 -637.98 3196.1C-647.95 3190.68 -655.76 3182.96 -661.18 3173.14C-666.59 3163.36 -669.33 3151.96 -669.33 3139.27C-669.33 3126.58 -666.55 3115.14 -661.06 3105.28C-655.56 3095.39 -647.76 3087.59 -637.87 3082.09C-628.01 3076.6 -616.66 3073.82 -604.12 3073.82C-583.77 3073.82 -568.22 3079.74 -557.9 3091.43C-547.63 3103.06 -542.42 3119.55 -542.42 3140.44ZM-581.93 3108.24C-587.4 3103.07 -594.79 3100.44 -603.88 3100.44C-612.37 3100.44 -619.57 3103.04 -625.27 3108.15C-630.63 3112.95 -634.12 3119.53 -635.64 3127.72L-573.33 3127.72C-573.91 3119.65 -576.79 3113.11 -581.93 3108.24Z" />
			</g>
		</g>
		<g id="&lt;Group&gt;">
			<g id="&lt;Group&gt;">
				<g id="&lt;Group&gt;">
					<g id="&lt;Group&gt;">
					</g>
				</g>
			</g>
			<g id="&lt;Group&gt;">
				<path id="&lt;Path&gt;" class="shp1" d="M74.86 153.12L19.15 153.12L19.15 0.43L74.86 0.43L74.86 153.12Z" />
				<path id="&lt;Path&gt;" class="shp2" d="M280.66 56.13L116.89 56.13L116.89 0.43L280.66 0.43L280.66 56.13Z" />
				<path id="&lt;Path&gt;" class="shp3" d="M178.38 153.12L116.89 153.12L116.89 97.42L178.38 97.42L178.38 153.12Z" />
				<path id="&lt;Path&gt;" class="shp4" d="M280.66 153.12L219.17 153.12L219.17 97.42L280.66 97.42L280.66 153.12Z" />
				<path id="&lt;Path&gt;" class="shp5" d="M280.66 250.11L19.15 250.11L19.15 194.41L280.66 194.41L280.66 250.11Z" />
			</g>
		</g>
		<g id="&lt;Group&gt;">
			<g id="&lt;Group&gt;">
				<g id="&lt;Group&gt;">
					<g id="&lt;Group&gt;">
					</g>
				</g>
			</g>
			<g id="&lt;Group&gt;">
			</g>
		</g>
		<g id="&lt;Group&gt;">
			<g id="&lt;Group&gt;">
				<path id="&lt;Compound Path&gt;" fill-rule="evenodd" class="shp0" d="M1083.19 3180.37C1083.19 3183 1083.08 3186.44 1082.86 3190.71L993.26 3190.71C995.29 3198.19 999.07 3204.19 1004.52 3208.56C1010.39 3213.27 1017.72 3215.66 1026.32 3215.66C1032.34 3215.66 1038.18 3214.51 1043.68 3212.23C1049.17 3209.96 1054.04 3206.66 1058.14 3202.41L1059.17 3201.34L1077.11 3220.04L1076.2 3221.03C1070.01 3227.85 1062.35 3233.19 1053.45 3236.9C1044.57 3240.61 1034.6 3242.49 1023.81 3242.49C1011.15 3242.49 999.83 3239.82 990.16 3234.56C980.45 3229.28 972.86 3221.76 967.58 3212.21C962.31 3202.68 959.64 3191.59 959.64 3179.23C959.64 3166.88 962.35 3155.74 967.69 3146.14C973.05 3136.51 980.64 3128.92 990.26 3123.57C999.86 3118.22 1010.92 3115.52 1023.13 3115.52C1042.93 3115.52 1058.07 3121.28 1068.12 3132.65C1078.12 3143.98 1083.19 3160.03 1083.19 3180.37ZM1044.72 3149.02C1039.4 3143.99 1032.21 3141.43 1023.36 3141.43C1015.09 3141.43 1008.08 3143.96 1002.53 3148.93C997.31 3153.61 993.92 3160.01 992.43 3167.98L1053.09 3167.98C1052.54 3160.13 1049.73 3153.76 1044.72 3149.02Z" />
				<path id="&lt;Path&gt;" class="shp0" d="M1139.54 3047.96L1139.54 3241.35L1107.01 3241.35L1107.01 3047.96L1139.54 3047.96Z" />
				<path id="&lt;Path&gt;" class="shp0" d="M1422.84 3116.43L1375.21 3241.35L1342.66 3241.35L1294.57 3116.67L1328.7 3116.42L1359.6 3206.25L1389.84 3116.43L1422.84 3116.43Z" />
				<path id="&lt;Path&gt;" class="shp0" d="M1698.09 3163.75L1698.09 3241.38L1665.33 3241.38L1665.33 3172.42C1665.33 3164.33 1663.02 3157.88 1658.45 3153.24C1653.88 3148.6 1647.55 3146.25 1639.62 3146.25C1630.23 3146.4 1622.72 3149.61 1617.32 3155.8C1611.88 3162.04 1609.12 3170.16 1609.12 3179.95L1609.12 3241.38L1576.59 3241.38L1576.59 3116.46L1609.12 3116.46L1609.12 3135.54C1618.03 3122.4 1632.24 3115.6 1651.46 3115.32C1665.82 3115.32 1677.3 3119.73 1685.6 3128.42L1685.6 3128.42C1693.89 3137.1 1698.09 3148.99 1698.09 3163.75Z" />
				<path id="&lt;Compound Path&gt;" fill-rule="evenodd" class="shp0" d="M1888.75 3241.35L1888.75 3228.94C1884.72 3233.22 1880.22 3236.3 1874.82 3238.5C1867.8 3241.38 1860.46 3242.72 1851.75 3242.72C1843.04 3242.72 1835.26 3241.02 1828.63 3237.66C1821.95 3234.28 1816.73 3229.53 1813.11 3223.55C1809.49 3217.57 1807.65 3210.8 1807.65 3203.41C1807.65 3191.6 1811.9 3182.21 1820.28 3175.49C1828.68 3168.75 1840 3165.4 1854.87 3165.25L1881.31 3165.25C1883.35 3165.25 1885.14 3164.39 1886.37 3162.83C1887.79 3161.03 1888.29 3158.5 1887.7 3156.06C1887.11 3153.58 1883.14 3141.26 1862.95 3142.34C1851.14 3142.97 1843.95 3145.57 1837.4 3158L1836.7 3159.32L1811.08 3144.68L1811.74 3143.44C1820.32 3127.47 1832.83 3120.89 1841.81 3118.18C1849.75 3115.79 1859.13 3114.58 1869.72 3114.58C1885.12 3114.58 1897.76 3118.78 1907.27 3127.05C1916.3 3134.9 1920.96 3146 1921.11 3160.05L1921.35 3241.35L1888.75 3241.35ZM1862.37 3187.97C1854.78 3187.97 1849.16 3189.08 1845.69 3191.28C1842.38 3193.38 1840.77 3196.75 1840.77 3201.59C1840.77 3206.34 1842.49 3210 1846.04 3212.77C1849.63 3215.6 1854.67 3217.03 1861 3217.03C1869.21 3217.03 1873.48 3215.16 1879.42 3211.22C1885.15 3207.42 1888.3 3202.9 1889.04 3197.39L1889.04 3187.97L1862.37 3187.97Z" />
				<g id="&lt;Group&gt;">
					<g id="&lt;Group&gt;">
						<path id="&lt;Compound Path&gt;" fill-rule="evenodd" class="shp0" d="M1936.36 3140.11C1933.2 3136.89 1931.62 3133.05 1931.62 3128.55C1931.62 3124.04 1933.2 3120.21 1936.36 3117.05C1939.59 3113.82 1943.42 3112.24 1947.87 3112.24C1952.37 3112.24 1956.2 3113.82 1959.37 3117.05C1962.59 3120.21 1964.18 3124.04 1964.18 3128.55C1964.18 3133.05 1962.59 3136.89 1959.37 3140.11C1956.2 3143.27 1952.37 3144.86 1947.87 3144.86C1943.42 3144.86 1939.59 3143.27 1936.36 3140.11ZM1938.68 3119.18C1936.18 3121.79 1934.9 3124.9 1934.9 3128.55C1934.9 3132.2 1936.18 3135.3 1938.68 3137.92C1941.17 3140.48 1944.27 3141.75 1947.87 3141.75C1951.52 3141.75 1954.62 3140.48 1957.12 3137.92C1959.67 3135.3 1960.95 3132.2 1960.95 3128.55C1960.95 3124.9 1959.67 3121.79 1957.12 3119.18C1954.62 3116.56 1951.52 3115.28 1947.87 3115.28C1944.27 3115.28 1941.17 3116.56 1938.68 3119.18ZM1941.6 3137.86L1941.6 3119.18L1948.53 3119.18C1952.92 3119.18 1955.05 3121.79 1955.05 3125.14C1955.05 3127.64 1953.95 3129.34 1951.82 3130.31L1955.72 3137.86L1951.52 3137.86L1948.11 3131.16L1945.37 3131.16L1945.37 3137.86L1941.6 3137.86ZM1948.23 3122.71L1945.37 3122.71L1945.37 3127.7L1948.23 3127.7C1950.36 3127.7 1951.21 3126.48 1951.21 3125.2C1951.21 3123.56 1950.24 3122.71 1948.23 3122.71Z" />
					</g>
				</g>
				<path id="&lt;Path&gt;" class="shp0" d="M1754 3149.04L1754 3196.07C1754 3201.31 1754.95 3205.01 1756.82 3207.08L1756.82 3207.08C1758.85 3209.33 1766.67 3216.27 1782.43 3211.43L1784.29 3210.86L1784.29 3239.46L1783.25 3239.77C1776.02 3241.85 1769.69 3242.7 1764.16 3242.7C1746.38 3242.7 1736.89 3233.95 1732.2 3229.64C1725.23 3223.22 1721.7 3213.7 1721.7 3201.32L1721.71 3078.44L1754.02 3078.44L1754 3117.06L1784.29 3117.06L1784.29 3149.04L1754 3149.04Z" />
				<path id="&lt;Compound Path&gt;" fill-rule="evenodd" class="shp0" d="M1287.01 3180.37C1287.01 3183 1286.9 3186.44 1286.68 3190.71L1197.08 3190.71C1199.11 3198.19 1202.89 3204.19 1208.34 3208.56C1214.21 3213.27 1221.54 3215.66 1230.14 3215.66C1236.16 3215.66 1242 3214.51 1247.5 3212.23C1252.99 3209.96 1257.86 3206.66 1261.96 3202.41L1262.99 3201.34L1280.93 3220.04L1280.02 3221.03C1273.83 3227.85 1266.17 3233.19 1257.27 3236.9C1248.39 3240.61 1238.42 3242.49 1227.63 3242.49C1214.97 3242.49 1203.65 3239.82 1193.98 3234.56C1184.27 3229.28 1176.68 3221.76 1171.4 3212.21C1166.13 3202.68 1163.46 3191.59 1163.46 3179.23C1163.46 3166.88 1166.17 3155.74 1171.51 3146.14C1176.87 3136.51 1184.46 3128.92 1194.08 3123.57C1203.68 3118.22 1214.74 3115.52 1226.95 3115.52C1246.75 3115.52 1261.89 3121.28 1271.94 3132.65C1281.94 3143.98 1287.01 3160.03 1287.01 3180.37ZM1248.54 3149.02C1243.22 3143.99 1236.03 3141.43 1227.18 3141.43C1218.91 3141.43 1211.9 3143.96 1206.35 3148.93C1201.13 3153.61 1197.74 3160.01 1196.25 3167.98L1256.91 3167.98C1256.36 3160.13 1253.55 3153.76 1248.54 3149.02Z" />
				<path id="&lt;Compound Path&gt;" fill-rule="evenodd" class="shp0" d="M1553.22 3180.37C1553.22 3183 1553.11 3186.44 1552.89 3190.71L1463.29 3190.71C1465.32 3198.19 1469.1 3204.19 1474.55 3208.56C1480.42 3213.27 1487.76 3215.66 1496.35 3215.66C1502.38 3215.66 1508.21 3214.51 1513.71 3212.23C1519.2 3209.96 1524.07 3206.66 1528.17 3202.41L1529.21 3201.34L1547.14 3220.04L1546.24 3221.03C1540.04 3227.85 1532.38 3233.19 1523.48 3236.9C1514.6 3240.61 1504.63 3242.49 1493.84 3242.49C1481.18 3242.49 1469.86 3239.82 1460.19 3234.56C1450.49 3229.28 1442.89 3221.76 1437.61 3212.21C1432.34 3202.68 1429.67 3191.59 1429.67 3179.23C1429.67 3166.88 1432.38 3155.74 1437.72 3146.14C1443.08 3136.51 1450.67 3128.92 1460.3 3123.57C1469.89 3118.22 1480.95 3115.52 1493.16 3115.52C1512.96 3115.52 1528.1 3121.28 1538.15 3132.65C1548.15 3143.98 1553.22 3160.03 1553.22 3180.37ZM1514.75 3149.02C1509.43 3143.99 1502.24 3141.43 1493.39 3141.43C1485.12 3141.43 1478.12 3143.96 1472.56 3148.93C1467.35 3153.61 1463.95 3160.01 1462.47 3167.98L1523.13 3167.98C1522.57 3160.13 1519.76 3153.76 1514.75 3149.02Z" />
			</g>
			<g id="&lt;Group&gt;">
				<path id="&lt;Path&gt;" class="shp0" d="M1386.86 2918.83L1331.15 2918.83L1331.15 2766.14L1386.86 2766.14L1386.86 2918.83Z" />
				<path id="&lt;Path&gt;" class="shp0" d="M1592.66 2821.84L1428.89 2821.84L1428.89 2766.14L1592.66 2766.14L1592.66 2821.84Z" />
				<path id="&lt;Path&gt;" class="shp0" d="M1490.38 2918.83L1428.89 2918.83L1428.89 2863.13L1490.38 2863.13L1490.38 2918.83Z" />
				<path id="&lt;Path&gt;" class="shp0" d="M1592.66 2918.83L1531.17 2918.83L1531.17 2863.13L1592.66 2863.13L1592.66 2918.83Z" />
				<path id="&lt;Path&gt;" class="shp0" d="M1592.66 3015.82L1331.15 3015.82L1331.15 2960.12L1592.66 2960.12L1592.66 3015.82Z" />
			</g>
		</g>

	</g>
</svg>